<?xml version="1.0" standalone="no"?><!DOCTYPE svg PUBLIC "-//W3C//DTD SVG 1.1//EN" "http://www.w3.org/Graphics/SVG/1.1/DTD/svg11.dtd"><svg t="1561692475670" class="icon" viewBox="0 0 1024 1024" version="1.1" xmlns="http://www.w3.org/2000/svg" p-id="3719" xmlns:xlink="http://www.w3.org/1999/xlink" width="200" height="200"><defs><style type="text/css"></style></defs><path d="M505.206216 600.365718c-164.725984 0-298.740344-134.619286-298.740343-300.04326 0-165.423975 134.01436-300.043261 298.740343-300.043261 164.772517 0 298.786876 134.619286 298.786877 300.043261 0 165.423975-134.01436 300.043261-298.740344 300.04326z m0-565.37308C359.605199 34.946106 241.179315 154.023448 241.179315 300.275925c0 146.345542 118.472417 265.329819 264.073434 265.329819 145.647551 0 264.119967-118.984277 264.119968-265.329819 0-146.299009-118.518949-265.376352-264.119968-265.376352z" p-id="3720"></path><path d="M992.636917 1023.441607H17.822049a17.356721 17.356721 0 0 1-17.356721-17.356721l-0.186131-6.979915c0-231.081705 226.474961-419.074071 504.927019-419.07407 278.452059 0 504.973553 187.992366 504.973553 419.07407l-0.139598 5.304735c-0.372262 9.306553-8.143234 19.0319-17.403254 19.031901zM35.039171 988.774698h939.961829c-8.934291-209.164773-216.284286-374.076888-469.841316-374.076888-255.046078 0-463.326729 166.866491-470.120513 374.076888z" p-id="3721"></path></svg>